<svg width="38" height="38" viewBox="0 0 38 38" fill="none" xmlns="http://www.w3.org/2000/svg">
<g clip-path="url(#clip0_2133_1851)">
<path fill-rule="evenodd" clip-rule="evenodd" d="M19.026 7.13672C11.1737 7.13672 5.11204 12.6958 2.17039 15.9501C0.925628 17.3272 0.212109 18.3475 0.212109 18.3475C0.0727652 18.5471 -0.00195313 18.7847 -0.00195312 19.0281C-0.00195312 19.2715 0.0727652 19.5091 0.212109 19.7087C0.212109 19.7087 0.77353 20.5131 1.7569 21.6415C4.51817 24.8098 10.7857 30.9195 19.026 30.9195C27.4844 30.9195 33.8727 24.4881 36.5158 21.3952C37.3646 20.4019 37.8422 19.7087 37.8422 19.7087C37.9815 19.5091 38.0563 19.2715 38.0563 19.0281C38.0563 18.7847 37.9815 18.5471 37.8422 18.3475C37.8422 18.3475 37.3183 17.5926 36.3927 16.5216C33.6796 13.3825 27.3581 7.13672 19.026 7.13672ZM19.026 9.51546C26.1363 9.51546 32.0718 15.1593 34.5923 18.0757C35.0969 18.6595 35.1445 18.7525 35.3566 19.0327C35.159 19.2927 35.1359 19.3476 34.7062 19.8504C32.2532 22.7207 26.2441 28.5407 19.026 28.5407C11.994 28.5407 6.11503 23.0237 3.54792 20.0781C2.99668 19.4456 2.93733 19.3282 2.71397 19.0327C2.97262 18.6874 3.13641 18.4302 3.93354 17.5484C6.67382 14.5168 12.3252 9.51546 19.026 9.51546ZM19.026 11.8942C15.0989 11.8942 11.8967 15.0963 11.8967 19.0235C11.8967 22.9506 15.0989 26.162 19.026 26.162C22.9531 26.162 26.1645 22.9506 26.1645 19.0235C26.1645 15.0963 22.9531 11.8942 19.026 11.8942ZM19.026 14.2753C21.668 14.2753 23.7858 16.3815 23.7858 19.0235C23.7858 21.6654 21.668 23.7833 19.026 23.7833C16.384 23.7833 14.2778 21.6654 14.2778 19.0235C14.2778 16.3815 16.384 14.2753 19.026 14.2753Z" fill="#FF9212"/>
</g>
<defs>
<clipPath id="clip0_2133_1851">
<rect width="38" height="38" fill="white"/>
</clipPath>
</defs>
</svg>
