<?xml version="1.0" encoding="utf-8"?>
<!-- Generator: Adobe Illustrator 26.3.1, SVG Export Plug-In . SVG Version: 6.00 Build 0)  -->
<svg version="1.1" id="Layer_1" xmlns="http://www.w3.org/2000/svg" xmlns:xlink="http://www.w3.org/1999/xlink" x="0px" y="0px"
	 viewBox="0 0 20 20" style="enable-background:new 0 0 20 20;" xml:space="preserve">
<style type="text/css">
	.st0{fill:none;stroke:url(#SVGID_1_);stroke-width:1.25;stroke-linecap:round;stroke-linejoin:round;}
</style>
<linearGradient id="SVGID_1_" gradientUnits="userSpaceOnUse" x1="-5.171" y1="18.7229" x2="16.8685" y2="6.0548">
	<stop  offset="0" style="stop-color:#F95B17"/>
	<stop  offset="1" style="stop-color:#E40767"/>
</linearGradient>
<path class="st0" d="M18.3,7.5v5c0,2.1-0.4,3.5-1.4,4.5l-5.3-5.3l6.4-6.4C18.3,5.9,18.3,6.6,18.3,7.5z M18.1,5.2L5.2,18.1
	c-2.5-0.6-3.6-2.3-3.6-5.6v-5c0-4.2,1.7-5.8,5.8-5.8h5C15.8,1.7,17.5,2.7,18.1,5.2z M17,17c-0.9,0.9-2.4,1.4-4.5,1.4h-5
	c-0.9,0-1.6-0.1-2.3-0.2l6.4-6.4L17,17z M5.2,6.6c0.6-2.4,4.2-2.4,4.8,0c0.3,1.4-0.6,2.7-1.4,3.4c-0.6,0.6-1.5,0.6-2.1,0
	C5.8,9.3,4.9,8.1,5.2,6.6z M7.6,7.2L7.6,7.2"/>
</svg>
