<svg width="20" height="20" viewBox="0 0 20 20" fill="none" xmlns="http://www.w3.org/2000/svg">
<path d="M18.3334 7.50156V12.5016C18.3334 14.5849 17.9168 16.0432 16.9834 16.9849L11.6667 11.6682L18.1084 5.22656C18.2584 5.8849 18.3334 6.63489 18.3334 7.50156Z" stroke="white" stroke-width="1.25" stroke-linecap="round" stroke-linejoin="round"/>
<path d="M18.1084 5.22631L5.22507 18.1096C2.71674 17.5346 1.66675 15.8013 1.66675 12.5013V7.5013C1.66675 3.33464 3.33341 1.66797 7.50008 1.66797H12.5001C15.8001 1.66797 17.5334 2.71797 18.1084 5.22631Z" stroke="white" stroke-width="1.25" stroke-linecap="round" stroke-linejoin="round"/>
<path d="M16.9834 16.9846C16.0418 17.918 14.5834 18.3346 12.5001 18.3346H7.50011C6.63344 18.3346 5.88343 18.2596 5.2251 18.1096L11.6668 11.668L16.9834 16.9846Z" stroke="white" stroke-width="1.25" stroke-linecap="round" stroke-linejoin="round"/>
<path d="M5.19997 6.64766C5.76664 4.20599 9.43332 4.20599 9.99998 6.64766C10.325 8.08099 9.42497 9.29766 8.6333 10.0477C8.0583 10.5977 7.14999 10.5977 6.56665 10.0477C5.77499 9.29766 4.86664 8.08099 5.19997 6.64766Z" stroke="white" stroke-width="1.25"/>
<path d="M7.57884 7.2487H7.58632" stroke="white" stroke-width="1.66667" stroke-linecap="round" stroke-linejoin="round"/>
</svg>
